# xmcd
#
# Track frame offsets: 
#        150
#        38846
#        60728
#        93267
#        113691
#        142977
#        161889
#
# Disc length: 2429 seconds
#
# Revision: 3
# Processed by: cddbd v1.5.2PL0 Copyright (c) Steve Scherf et al.
# Submitted via: ExactAudioCopy v0.99pb5
#
DISCID=56097b07
DTITLE=Jimmy Smith - At The Organ - A New Star - A New Sound 
DYEAR=1900
DGENRE=Jazz
TTITLE0=The Champ
TTITLE1=Bayou
TTITLE2=Deep Purple
TTITLE3=Moonlight in Vermont
TTITLE4=Ready 'N Able
TTITLE5=Turquoise
TTITLE6=Bubbis
EXTD=
EXTT0=
EXTT1=
EXTT2=
EXTT3=
EXTT4=
EXTT5=
EXTT6=
PLAYORDER=
